<?xml version="1.0" encoding="utf-8"?>
<!-- Generator: Adobe Illustrator 21.0.0, SVG Export Plug-In . SVG Version: 6.00 Build 0)  -->
<svg version="1.1" id="Layer_1" xmlns="http://www.w3.org/2000/svg" xmlns:xlink="http://www.w3.org/1999/xlink" x="0px" y="0px"
	 viewBox="0 0 1332.5 435.8" style="enable-background:new 0 0 1332.5 435.8;" xml:space="preserve">
<text transform="matrix(1 0 0 1 795.0971 49.2356)" style="font-family:'Helvetica'; font-size:36px;">Volcanic Region</text>
<text transform="matrix(1 0 0 1 185.3825 49.2356)" style="font-family:'Helvetica'; font-size:36px;">Non-Volcanic Region</text>
<g>
	
		<line style="fill:none;stroke:#12110B;stroke-width:0.38;stroke-linecap:round;stroke-linejoin:round;stroke-miterlimit:10;" x1="1079.1" y1="71.8" x2="1086.5" y2="64.4"/>
	
		<line style="fill:none;stroke:#12110B;stroke-width:0.38;stroke-linecap:round;stroke-linejoin:round;stroke-miterlimit:10;" x1="1083.3" y1="75.4" x2="1092.2" y2="66.4"/>
	
		<line style="fill:none;stroke:#12110B;stroke-width:0.38;stroke-linecap:round;stroke-linejoin:round;stroke-miterlimit:10;" x1="1091" y1="75.4" x2="1092.2" y2="74.2"/>
	
		<polyline style="fill:none;stroke:#12110B;stroke-width:0.38;stroke-linecap:round;stroke-linejoin:round;stroke-miterlimit:10;" points="
		1079.1,64.4 1092.2,64.4 1092.2,75.4 1079.1,75.4 1079.1,64.4 	"/>
	
		<polyline style="fill:none;stroke:#12110B;stroke-width:0.38;stroke-linecap:round;stroke-linejoin:round;stroke-miterlimit:10;" points="
		1079.1,64.4 1092.2,64.4 1092.2,75.4 1079.1,75.4 1079.1,64.4 	"/>
</g>
<g>
	
		<line style="fill:none;stroke:#12110B;stroke-width:0.38;stroke-linecap:round;stroke-linejoin:round;stroke-miterlimit:10;" x1="1079.1" y1="97.4" x2="1080.1" y2="96.4"/>
	
		<line style="fill:none;stroke:#12110B;stroke-width:0.38;stroke-linecap:round;stroke-linejoin:round;stroke-miterlimit:10;" x1="1079.1" y1="105.1" x2="1087.8" y2="96.4"/>
	
		<line style="fill:none;stroke:#12110B;stroke-width:0.38;stroke-linecap:round;stroke-linejoin:round;stroke-miterlimit:10;" x1="1084.6" y1="107.4" x2="1092.2" y2="99.7"/>
	
		<polyline style="fill:none;stroke:#12110B;stroke-width:0.38;stroke-linecap:round;stroke-linejoin:round;stroke-miterlimit:10;" points="
		1079.1,96.4 1092.2,96.4 1092.2,107.4 1079.1,107.4 1079.1,96.4 	"/>
	
		<line style="fill:none;stroke:#12110B;stroke-width:0.38;stroke-linecap:round;stroke-linejoin:round;stroke-miterlimit:10;" x1="1086.8" y1="107.4" x2="1079.1" y2="99.7"/>
	
		<line style="fill:none;stroke:#12110B;stroke-width:0.38;stroke-linecap:round;stroke-linejoin:round;stroke-miterlimit:10;" x1="1092.2" y1="105.1" x2="1083.6" y2="96.4"/>
	
		<line style="fill:none;stroke:#12110B;stroke-width:0.38;stroke-linecap:round;stroke-linejoin:round;stroke-miterlimit:10;" x1="1092.2" y1="97.4" x2="1091.3" y2="96.4"/>
	
		<polyline style="fill:none;stroke:#12110B;stroke-width:0.38;stroke-linecap:round;stroke-linejoin:round;stroke-miterlimit:10;" points="
		1079.1,96.4 1092.2,96.4 1092.2,107.4 1079.1,107.4 1079.1,96.4 	"/>
</g>
<text transform="matrix(1 0 0 1 1094.3187 77.9642)" style="fill:#12110B; font-family:'Helvetica'; font-size:20.25px;">Erupted</text>
<text transform="matrix(1 0 0 1 1094.3187 106.3899)"><tspan x="0" y="0" style="fill:#12110B; font-family:'Helvetica'; font-size:20.25px;">Erupted </tspan><tspan x="0" y="24.3" style="fill:#12110B; font-family:'Helvetica'; font-size:20.25px;">w/precursory VTs</tspan></text>
<polygon style="fill:#E21013;stroke:#1D1D1B;stroke-width:0.75;stroke-linecap:round;stroke-linejoin:round;stroke-miterlimit:10;" points="
	485.2,250.9 485.1,246.4 484.9,241.9 484.6,237.4 484.1,233 483.4,228.5 482.6,224.1 481.7,219.7 480.6,215.3 479.4,211 
	478.1,206.7 476.6,202.5 475,198.3 473.3,194.1 471.4,190 469.4,186 467.2,182 465,178.2 462.6,174.3 460.1,170.6 457.5,167 
	454.7,163.4 451.9,159.9 448.9,156.5 445.8,153.2 442.7,150.1 439.4,147 436,144 432.6,141.1 429,138.4 425.4,135.7 421.7,133.2 
	417.9,130.8 414,128.5 410,126.3 406,124.3 402,122.4 397.8,120.6 393.6,119 389.4,117.5 385.1,116.1 380.8,114.9 376.4,113.8 
	372,112.8 367.6,112 363.2,111.4 358.7,110.8 354.2,110.4 349.7,110.2 345.2,110.1 340.7,110.2 336.2,110.3 331.8,110.7 
	327.3,111.2 322.8,111.8 318.4,112.5 314,113.4 309.6,114.5 305.3,115.7 301,117 296.7,118.4 292.5,120 288.4,121.7 284.3,123.6 
	280.2,125.6 276.3,127.7 344.4,250.9 "/>
<polygon style="fill:#43AA34;stroke:#1D1D1B;stroke-width:0.75;stroke-linecap:round;stroke-linejoin:round;stroke-miterlimit:10;" points="
	276.3,127.7 272.4,129.9 268.6,132.3 264.8,134.8 261.2,137.4 257.6,140.1 254.1,142.9 250.7,145.8 247.4,148.9 244.2,152 
	241.1,155.3 238.1,158.6 235.2,162.1 232.4,165.6 229.7,169.2 227.2,172.9 224.8,176.7 222.5,180.5 220.3,184.5 218.2,188.5 
	216.3,192.5 214.5,196.6 212.8,200.8 211.3,205 209.9,209.3 208.7,213.6 207.5,217.9 206.6,222.3 205.7,226.7 205,231.2 
	204.5,235.6 204,240.1 203.8,244.6 203.6,249.1 203.6,253.6 203.8,258 204.1,262.5 204.5,267 205.1,271.4 205.8,275.9 206.7,280.3 
	207.7,284.7 208.9,289 210.2,293.3 211.6,297.6 213.1,301.8 214.8,305.9 216.6,310 218.6,314.1 220.7,318.1 222.9,322 225.2,325.8 
	227.7,329.6 230.2,333.3 232.9,336.9 235.7,340.4 238.6,343.8 241.6,347.1 244.7,350.4 248,353.5 251.3,356.5 254.7,359.4 
	258.2,362.2 261.8,364.9 265.5,367.5 269.2,370 273.1,372.3 277,374.5 281,376.6 285,378.6 289.1,380.4 293.3,382.1 297.5,383.6 
	301.7,385.1 306,386.4 310.4,387.5 314.7,388.5 319.1,389.4 323.6,390.2 328,390.8 332.5,391.2 337,391.5 341.4,391.7 345.9,391.7 
	350.4,391.6 354.9,391.3 359.4,390.9 363.8,390.4 368.3,389.7 372.7,388.8 377.1,387.9 381.4,386.8 385.7,385.5 390,384.1 
	394.2,382.6 398.4,380.9 402.5,379.2 406.6,377.2 410.6,375.2 414.5,373 418.4,370.7 422.2,368.3 425.9,365.8 429.5,363.1 
	433,360.3 436.5,357.5 439.8,354.5 443.1,351.4 446.2,348.2 449.3,344.9 452.2,341.5 455,338 457.8,334.4 460.4,330.8 462.9,327 
	465.2,323.2 467.5,319.3 469.6,315.4 471.6,311.4 473.4,307.3 475.2,303.1 476.8,298.9 478.2,294.7 479.6,290.4 480.8,286.1 
	481.8,281.7 344.4,250.9 "/>
<polygon style="fill:#BF4B94;stroke:#1D1D1B;stroke-width:0.75;stroke-linecap:round;stroke-linejoin:round;stroke-miterlimit:10;" points="
	481.8,281.7 482.9,276.6 483.7,271.5 484.4,266.4 484.8,261.2 485.1,256.1 485.2,250.9 344.4,250.9 "/>
<line style="fill:none;stroke:#000000;stroke-width:0.75;stroke-linecap:round;stroke-linejoin:round;stroke-miterlimit:10;" x1="469.9" y1="186.5" x2="476.4" y2="183.9"/>
<line style="fill:none;stroke:#000000;stroke-width:0.75;stroke-linecap:round;stroke-linejoin:round;stroke-miterlimit:10;" x1="485.2" y1="264" x2="492.3" y2="264.3"/>
<text transform="matrix(1 0 0 1 497.693 261.1341)"><tspan x="0" y="0" style="font-family:'Helvetica'; font-size:21px;">Too few</tspan><tspan x="0" y="25.2" style="font-family:'Helvetica'; font-size:21px;"> mainshocks 4%</tspan></text>
<line style="fill:none;stroke:#000000;stroke-width:0.75;stroke-linecap:round;stroke-linejoin:round;stroke-miterlimit:10;" x1="203.6" y1="295.4" x2="210.2" y2="292.8"/>
<polygon style="fill:#E21013;stroke:#1D1D1B;stroke-width:0.75;stroke-linecap:round;stroke-linejoin:round;stroke-miterlimit:10;" points="
	1059.3,256.7 1059.2,252.1 1059,247.5 1058.6,242.9 1058.1,238.4 1057.4,233.8 1056.6,229.3 1055.6,224.8 1054.5,220.3 
	1053.3,215.9 1051.9,211.5 1050.3,207.2 1048.6,202.9 1046.8,198.7 1044.8,194.5 1042.8,190.4 1040.5,186.4 1038.2,182.5 
	1035.7,178.6 1033.1,174.8 1030.3,171.1 1027.5,167.5 1024.5,164 1021.4,160.6 1018.2,157.3 1014.9,154.1 1011.5,151 1008,148 
	1004.4,145.2 1000.7,142.4 997,139.8 993.1,137.3 989.2,134.9 985.2,132.7 981.1,130.6 976.9,128.6 972.7,126.7 968.4,125 
	918.5,256.7 "/>
<line style="fill:none;stroke:#000000;stroke-width:0.75;stroke-linecap:round;stroke-linejoin:round;stroke-miterlimit:10;" x1="1034.4" y1="176.7" x2="1040.2" y2="172.7"/>
<polygon style="fill:#E21013;stroke:#1D1D1B;stroke-width:0.75;stroke-linecap:round;stroke-linejoin:round;stroke-miterlimit:10;" points="
	968.4,125 963.1,123.1 957.7,121.5 952.2,120 946.7,118.7 941.1,117.7 935.5,116.9 918.5,256.7 "/>
<polygon style="fill:#E21013;stroke:#1D1D1B;stroke-width:0.75;stroke-linecap:round;stroke-linejoin:round;stroke-miterlimit:10;" points="
	935.5,116.9 930.9,116.4 926.2,116.1 921.6,115.9 917,115.9 912.3,116 907.7,116.3 903.1,116.7 898.5,117.3 893.9,118.1 889.3,119 
	884.8,120 880.3,121.2 875.9,122.5 871.5,124 867.1,125.6 862.9,127.4 858.6,129.3 854.5,131.3 850.4,133.5 846.3,135.8 
	842.4,138.2 838.5,140.8 918.5,256.7 "/>
<polygon style="fill:#43AA34;stroke:#1D1D1B;stroke-width:0.75;stroke-linecap:round;stroke-linejoin:round;stroke-miterlimit:10;" points="
	838.5,140.8 834.9,143.4 831.3,146.2 827.8,149 824.4,151.9 821.2,155 818,158.1 814.9,161.4 811.9,164.7 809,168.2 806.3,171.7 
	803.6,175.3 801.1,179 798.7,182.8 796.4,186.7 794.2,190.6 792.1,194.6 790.2,198.7 788.5,202.8 786.8,206.9 785.3,211.2 
	783.9,215.4 782.6,219.7 781.5,224.1 780.6,228.5 779.7,232.9 779.1,237.3 778.5,241.8 778.1,246.2 777.8,250.7 777.7,255.2 
	777.7,259.7 777.9,264.2 778.2,268.6 778.7,273.1 779.3,277.6 780,282 780.9,286.4 781.9,290.8 783.1,295.1 784.3,299.4 
	785.8,303.6 787.3,307.8 789,312 790.9,316.1 792.8,320.1 794.9,324.1 797.1,328 799.4,331.8 801.9,335.6 804.5,339.3 807.2,342.9 
	810,346.4 812.9,349.8 815.9,353.1 819,356.3 822.2,359.4 825.6,362.5 829,365.4 832.5,368.2 836.1,370.8 839.8,373.4 843.5,375.9 
	847.4,378.2 851.3,380.4 855.2,382.5 859.3,384.4 863.4,386.3 867.5,387.9 871.7,389.5 876,390.9 880.3,392.2 884.6,393.4 
	889,394.4 893.4,395.2 897.8,396 902.3,396.6 906.7,397 911.2,397.3 915.7,397.5 920.2,397.5 924.7,397.4 929.2,397.1 933.6,396.7 
	938.1,396.1 942.5,395.4 946.9,394.6 951.3,393.6 955.6,392.5 960,391.3 964.2,389.9 968.4,388.3 918.5,256.7 "/>
<line style="fill:none;stroke:#000000;stroke-width:0.75;stroke-linecap:round;stroke-linejoin:round;stroke-miterlimit:10;" x1="820.1" y1="357.8" x2="813.9" y2="361.1"/>
<polygon style="fill:#43AA34;stroke:#1D1D1B;stroke-width:0.75;stroke-linecap:round;stroke-linejoin:round;stroke-miterlimit:10;" points="
	968.4,388.3 972.8,386.6 977,384.8 981.2,382.8 985.3,380.6 989.4,378.4 993.3,376 997.2,373.4 1001,370.8 1004.7,368 1008.4,365.1 
	1011.9,362.1 1015.3,359 1018.6,355.7 1021.8,352.4 1024.9,348.9 1027.9,345.3 1030.8,341.7 1033.5,337.9 1036.1,334.1 
	1038.6,330.2 1041,326.2 1043.2,322.1 918.5,256.7 "/>
<polygon style="fill:#43AA34;stroke:#1D1D1B;stroke-width:0.75;stroke-linecap:round;stroke-linejoin:round;stroke-miterlimit:10;" points="
	1043.2,322.1 1045.7,317.1 1048,311.9 1050.2,306.6 1052.1,301.3 1053.8,295.9 1055.2,290.4 918.5,256.7 "/>
<polygon style="fill:#BF4B94;stroke:#1D1D1B;stroke-width:0.75;stroke-linecap:round;stroke-linejoin:round;stroke-miterlimit:10;" points="
	1055.2,290.4 1056.5,284.9 1057.5,279.3 1058.3,273.7 1058.9,268 1059.2,262.4 1059.3,256.7 918.5,256.7 "/>
<line style="fill:none;stroke:#000000;stroke-width:0.75;stroke-linecap:round;stroke-linejoin:round;stroke-miterlimit:10;" x1="1058.3" y1="273.7" x2="1065.3" y2="274.5"/>
<polygon style="fill:#FF00FD;stroke:#000000;stroke-width:0.75;stroke-linecap:round;stroke-linejoin:round;stroke-miterlimit:10;" points="
	1059.3,256.7 1059.3,256.7 918.5,256.7 "/>
<polygon style="fill:#FF00FD;stroke:#000000;stroke-width:0.75;stroke-linecap:round;stroke-linejoin:round;stroke-miterlimit:10;" points="
	1059.3,256.7 1059.3,256.7 918.5,256.7 "/>
<path style="fill:none;stroke:#000000;stroke-width:0.38;stroke-linecap:round;stroke-linejoin:round;stroke-miterlimit:10;" d="
	M1059.3,256.7l-0.1-4.6l-0.2-4.6l-0.4-4.6l-0.5-4.6l-0.7-4.5l-0.8-4.5l-1-4.5l-1.1-4.5l-1.3-4.4l-1.4-4.4l-1.5-4.3l-1.7-4.3
	l-1.8-4.2l-2-4.2l-2.1-4.1l-2.2-4l-2.4-3.9l-2.5-3.9l-2.6-3.8l-2.7-3.7l-2.9-3.6l-3-3.5l-3.1-3.4l-3.2-3.3l-3.3-3.2l-3.4-3.1l-3.5-3
	l-3.6-2.9l-3.7-2.7l-3.8-2.6l-3.9-2.5l-3.9-2.4l-4-2.2l-4.1-2.1l-4.2-2l-4.2-1.8l-4.3-1.7l-49.9,131.7H1059.3 M935.4,117.6l0.6-0.6
	 M934.6,124.6l6.8-6.8 M933.7,131.5l12.8-12.8 M932.9,138.5l18.7-18.7 M932,145.4l24.3-24.3 M931.2,152.4l29.9-29.9 M930.3,159.3
	l35.3-35.3 M929.5,166.3l37.5-37.5 M928.6,173.3l34.7-34.7 M927.8,180.2l31.8-31.8 M927,187.2l28.9-28.9 M926.1,194.1l26-26
	 M925.3,201.1l23.1-23.1 M924.4,208l20.2-20.2 M923.6,215l17.3-17.3 M922.7,221.9l14.4-14.4 M921.9,228.9l11.6-11.6 M921,235.8
	l8.7-8.7 M920.2,242.8l5.8-5.8 M919.4,249.7l2.9-2.9 M918.5,256.7L918.5,256.7 M968.4,125l-5.3-1.9l-5.4-1.7l-5.5-1.5l-5.5-1.2
	l-5.6-1l-5.6-0.8l-17,139.8L968.4,125 M838.7,141l0.9-0.9 M841.2,144.6l13.4-13.4 M843.7,148.3l22.1-22.1 M846.2,151.9l29.2-29.2
	 M848.7,155.5l35.3-35.3 M851.2,159.1l40.6-40.6 M853.6,162.7l45.5-45.5 M856.1,166.3l49.9-49.9 M858.6,169.9l53.9-53.9
	 M861.1,173.6l57.6-57.6 M863.6,177.2l61.1-61.1 M866.1,180.8l64.4-64.4 M868.6,184.4l66.8-66.8 M871.1,188l63.4-63.4 M873.6,191.6
	l60.1-60.1 M876.1,195.2l56.8-56.8 M878.6,198.9l53.4-53.4 M881.1,202.5l50.1-50.1 M883.6,206.1l46.7-46.7 M886.1,209.7l43.4-43.4
	 M888.6,213.3l40.1-40.1 M891.1,216.9l36.7-36.7 M893.6,220.6l33.4-33.4 M896.1,224.2l30.1-30.1 M898.6,227.8l26.7-26.7 M901,231.4
	l23.4-23.4 M903.5,235l20-20 M906,238.6l16.7-16.7 M908.5,242.2l13.4-13.4 M911,245.9l10-10 M913.5,249.5l6.7-6.7 M916,253.1
	l3.3-3.3 M935.5,116.9l-4.6-0.5l-4.6-0.3l-4.6-0.2l-4.6,0l-4.6,0.1l-4.6,0.3l-4.6,0.4l-4.6,0.6l-4.6,0.7l-4.6,0.9l-4.5,1l-4.5,1.2
	l-4.4,1.3l-4.4,1.5l-4.3,1.6l-4.3,1.8l-4.2,1.9l-4.2,2l-4.1,2.2l-4,2.3l-3.9,2.4l-3.9,2.6l80,115.9L935.5,116.9 M838.5,140.8
	l-3.6,2.6l-3.6,2.7l-3.5,2.8l-3.4,2.9l-3.3,3l-3.2,3.2l-3.1,3.3l-3,3.3l-2.9,3.4l-2.8,3.5l-2.7,3.6l-2.5,3.7l-2.4,3.8l-2.3,3.9
	l-2.2,3.9l-2,4l-1.9,4.1l-1.8,4.1l-1.7,4.2l-1.5,4.2l-1.4,4.3l-1.2,4.3l-1.1,4.3l-1,4.4l-0.8,4.4l-0.7,4.4l-0.5,4.5l-0.4,4.5
	l-0.3,4.5l-0.1,4.5l0,4.5l0.2,4.5l0.3,4.5l0.5,4.5l0.6,4.4l0.7,4.4l0.9,4.4l1,4.4l1.2,4.3l1.3,4.3l1.4,4.3l1.6,4.2l1.7,4.2l1.8,4.1
	l2,4l2.1,4l2.2,3.9l2.3,3.8l2.5,3.8l2.6,3.7l2.7,3.6l2.8,3.5l2.9,3.4l3,3.3l3.1,3.2l3.2,3.1l3.3,3l3.4,2.9l3.5,2.8l3.6,2.7l3.7,2.6
	l3.8,2.5l3.8,2.3l3.9,2.2l4,2.1l4,1.9l4.1,1.8l4.2,1.7l4.2,1.6l4.3,1.4l4.3,1.3l4.3,1.1l4.4,1l4.4,0.9l4.4,0.7l4.4,0.6l4.5,0.4
	l4.5,0.3l4.5,0.2l4.5,0l4.5-0.1l4.5-0.3l4.5-0.4l4.5-0.6l4.4-0.7l4.4-0.8l4.4-1l4.3-1.1l4.3-1.3l4.3-1.4l4.2-1.5l-49.9-131.7
	L838.5,140.8 M920.2,261.1l2.3-2.3 M921.9,265.6l4.7-4.7 M923.6,270l7-7 M925.2,274.4l9.3-9.3 M926.9,278.8l11.6-11.6 M928.6,283.3
	l14-14 M930.3,287.7l16.3-16.3 M932,292.1l18.6-18.6 M933.6,296.6l20.9-20.9 M935.3,301l23.3-23.3 M937,305.4l25.6-25.6
	 M938.7,309.8l27.9-27.9 M940.4,314.3l30.2-30.2 M942,318.7l32.6-32.6 M943.7,323.1l34.9-34.9 M945.4,327.6l37.2-37.2 M947.1,332
	l39.6-39.6 M948.8,336.4l41.9-41.9 M950.4,340.9l44.2-44.2 M952.1,345.3l46.5-46.5 M953.8,349.7l48.9-48.9 M955.5,354.1l51.2-51.2
	 M957.2,358.6l53.5-53.5 M958.8,363l55.8-55.8 M960.5,367.4l58.2-58.2 M962.2,371.9l60.5-60.5 M963.9,376.3l62.8-62.8 M965.5,380.7
	l65.1-65.1 M967.2,385.1l67.5-67.5 M971.3,387.2l67.4-67.4 M982.5,382.1l60.2-60.2 M997.4,373.3l37.7-37.7 M968.4,388.3l4.3-1.7
	l4.2-1.9l4.2-2l4.1-2.1l4-2.3l4-2.4l3.9-2.5l3.8-2.7l3.7-2.8l3.6-2.9l3.5-3l3.4-3.1l3.3-3.2l3.2-3.4l3.1-3.5l3-3.6l2.9-3.7l2.7-3.7
	l2.6-3.8l2.5-3.9l2.4-4l2.2-4.1l-124.7-65.4L968.4,388.3 M922.5,258.8l0.9-0.9 M926.5,260.9l1.8-1.8 M930.5,263l2.7-2.7
	 M934.5,265.1l3.6-3.6 M938.5,267.2l4.5-4.5 M942.6,269.3l5.4-5.4 M946.6,271.4l6.3-6.3 M950.6,273.5l7.2-7.2 M954.6,275.6l8.1-8.1
	 M958.6,277.7l8.9-9 M962.6,279.8l9.8-9.8 M966.6,281.9l10.7-10.7 M970.6,284l11.6-11.6 M974.6,286.1l12.5-12.5 M978.6,288.2
	l13.4-13.4 M982.6,290.3l14.3-14.3 M986.6,292.4l15.2-15.2 M990.6,294.5l16.1-16.1 M994.6,296.6l17-17 M998.6,298.7l17.9-17.9
	 M1002.7,300.9l18.8-18.8 M1006.7,303l19.7-19.7 M1010.7,305.1l20.6-20.6 M1014.7,307.2l21.5-21.5 M1018.7,309.3l22.4-22.4
	 M1022.7,311.4l23.3-23.3 M1026.7,313.5l24.2-24.2 M1030.7,315.6l24.3-24.3 M1034.7,317.7l17.8-17.8 M1038.7,319.8l10.3-10.3
	 M1042.7,321.9l1.2-1.2 M1043.2,322.1l2.5-5.1l2.3-5.2l2.1-5.3l1.9-5.3l1.7-5.4l1.5-5.5l-136.7-33.7L1043.2,322.1 M1055.2,290.4
	l1.2-5.5l1-5.6l0.8-5.6l0.6-5.6l0.3-5.7l0.1-5.7H918.5L1055.2,290.4 M924.6,256.7L924.6,256.7 M930.7,256.7L930.7,256.7
	 M936.8,256.7L936.8,256.7 M943,256.7L943,256.7 M949.1,256.7L949.1,256.7 M955.2,256.7L955.2,256.7 M961.3,256.7L961.3,256.7
	 M967.4,256.7L967.4,256.7 M973.5,256.7L973.5,256.7 M979.6,256.7L979.6,256.7 M985.7,256.7L985.7,256.7 M991.8,256.7L991.8,256.7
	 M997.9,256.7L997.9,256.7 M1004,256.7L1004,256.7 M1010.2,256.7L1010.2,256.7 M1016.3,256.7L1016.3,256.7 M1022.4,256.7
	L1022.4,256.7 M1028.5,256.7L1028.5,256.7 M1034.6,256.7L1034.6,256.7 M1040.7,256.7L1040.7,256.7 M1046.8,256.7L1046.8,256.7
	 M1052.9,256.7L1052.9,256.7 M1059,256.7L1059,256.7 M1059.3,256.7L1059.3,256.7H918.5H1059.3 M924.6,256.7L924.6,256.7
	 M930.7,256.7L930.7,256.7 M936.8,256.7L936.8,256.7 M943,256.7L943,256.7 M949.1,256.7L949.1,256.7 M955.2,256.7L955.2,256.7
	 M961.3,256.7L961.3,256.7 M967.4,256.7L967.4,256.7 M973.5,256.7L973.5,256.7 M979.6,256.7L979.6,256.7 M985.7,256.7L985.7,256.7
	 M991.8,256.7L991.8,256.7 M997.9,256.7L997.9,256.7 M1004,256.7L1004,256.7 M1010.2,256.7L1010.2,256.7 M1016.3,256.7L1016.3,256.7
	 M1022.4,256.7L1022.4,256.7 M1028.5,256.7L1028.5,256.7 M1034.6,256.7L1034.6,256.7 M1040.7,256.7L1040.7,256.7 M1046.8,256.7
	L1046.8,256.7 M1052.9,256.7L1052.9,256.7 M1059,256.7L1059,256.7 M1059.3,256.7L1059.3,256.7H918.5H1059.3 M1059.3,256.7l-0.1-4.6
	l-0.2-4.6l-0.4-4.6l-0.5-4.6l-0.7-4.5l-0.8-4.5l-1-4.5l-1.1-4.5l-1.3-4.4l-1.4-4.4l-1.5-4.3l-1.7-4.3l-1.8-4.2l-2-4.2l-2.1-4.1
	l-2.2-4l-2.4-3.9l-2.5-3.9l-2.6-3.8l-2.7-3.7l-2.9-3.6l-3-3.5l-3.1-3.4l-3.2-3.3l-3.3-3.2l-3.4-3.1l-3.5-3l-3.6-2.9l-3.7-2.7
	l-3.8-2.6l-3.9-2.5l-3.9-2.4l-4-2.2l-4.1-2.1l-4.2-2l-4.2-1.8l-4.3-1.7l-49.9,131.7H1059.3 M968.4,125l-5.3-1.9l-5.4-1.7l-5.5-1.5
	l-5.5-1.2l-5.6-1l-5.6-0.8l-17,139.8L968.4,125 M919.2,251.2L904.9,237 M919.8,245.8l-28.5-28.6 M920.5,240.4l-42.8-42.8
	 M921.2,234.9l-57.1-57.1 M921.8,229.5l-71.4-71.4 M922.5,224L839,140.5 M923.1,218.6l-80.5-80.5 M923.8,213.1l-77.4-77.4
	 M924.5,207.7l-74.1-74.1 M925.1,202.2l-70.8-70.8 M925.8,196.8l-67.4-67.4 M926.5,191.3l-63.8-63.8 M927.1,185.9l-60.2-60.2
	 M927.8,180.4L871.4,124 M928.4,175l-52.5-52.5 M929.1,169.5l-48.4-48.4 M929.8,164.1l-44.3-44.2 M930.4,158.6l-39.9-39.9
	 M931.1,153.2l-35.4-35.4 M931.7,147.7L901,117 M932.4,142.3l-25.9-25.9 M933.1,136.8L912.3,116 M933.7,131.4l-15.5-15.5
	 M934.4,125.9l-9.9-9.9 M935,120.5l-4-4 M935.5,116.9l-4.6-0.5l-4.6-0.3l-4.6-0.2l-4.6,0l-4.6,0.1l-4.6,0.3l-4.6,0.4l-4.6,0.6
	l-4.6,0.7l-4.6,0.9l-4.5,1l-4.5,1.2l-4.4,1.3l-4.4,1.5l-4.3,1.6l-4.3,1.8l-4.2,1.9l-4.2,2l-4.1,2.2l-4,2.3l-3.9,2.4l-3.9,2.6
	l80,115.9L935.5,116.9 M838.5,140.8l-3.6,2.6l-3.6,2.7l-3.5,2.8l-3.4,2.9l-3.3,3l-3.2,3.2l-3.1,3.3l-3,3.3l-2.9,3.4l-2.8,3.5
	l-2.7,3.6l-2.5,3.7l-2.4,3.8l-2.3,3.9l-2.2,3.9l-2,4l-1.9,4.1l-1.8,4.1l-1.7,4.2l-1.5,4.2l-1.4,4.3l-1.2,4.3l-1.1,4.3l-1,4.4
	l-0.8,4.4l-0.7,4.4l-0.5,4.5l-0.4,4.5l-0.3,4.5l-0.1,4.5l0,4.5l0.2,4.5l0.3,4.5l0.5,4.5l0.6,4.4l0.7,4.4l0.9,4.4l1,4.4l1.2,4.3
	l1.3,4.3l1.4,4.3l1.6,4.2l1.7,4.2l1.8,4.1l2,4l2.1,4l2.2,3.9l2.3,3.8l2.5,3.8l2.6,3.7l2.7,3.6l2.8,3.5l2.9,3.4l3,3.3l3.1,3.2
	l3.2,3.1l3.3,3l3.4,2.9l3.5,2.8l3.6,2.7l3.7,2.6l3.8,2.5l3.8,2.3l3.9,2.2l4,2.1l4,1.9l4.1,1.8l4.2,1.7l4.2,1.6l4.3,1.4l4.3,1.3
	l4.3,1.1l4.4,1l4.4,0.9l4.4,0.7l4.4,0.6l4.5,0.4l4.5,0.3l4.5,0.2l4.5,0l4.5-0.1l4.5-0.3l4.5-0.4l4.5-0.6l4.4-0.7l4.4-0.8l4.4-1
	l4.3-1.1l4.3-1.3l4.3-1.4l4.2-1.5l-49.9-131.7L838.5,140.8"/>
<polyline style="fill:none;stroke:#000000;stroke-width:0.38;stroke-linecap:round;stroke-linejoin:round;stroke-miterlimit:10;" points="
	968.4,388.3 972.8,386.6 977,384.8 981.2,382.8 985.3,380.6 989.4,378.4 993.3,376 997.2,373.4 1001,370.8 1004.7,368 1008.4,365.1 
	1011.9,362.1 1015.3,359 1018.6,355.7 1021.8,352.4 1024.9,348.9 1027.9,345.3 1030.8,341.7 1033.5,337.9 1036.1,334.1 
	1038.6,330.2 1041,326.2 1043.2,322.1 918.5,256.7 968.4,388.3 "/>
<line style="fill:none;stroke:#000000;stroke-width:0.38;stroke-linecap:round;stroke-linejoin:round;stroke-miterlimit:10;" x1="931.4" y1="263.4" x2="926.6" y2="258.7"/>
<line style="fill:none;stroke:#000000;stroke-width:0.38;stroke-linecap:round;stroke-linejoin:round;stroke-miterlimit:10;" x1="944.2" y1="270.2" x2="934.7" y2="260.7"/>
<line style="fill:none;stroke:#000000;stroke-width:0.38;stroke-linecap:round;stroke-linejoin:round;stroke-miterlimit:10;" x1="957.1" y1="276.9" x2="942.8" y2="262.7"/>
<line style="fill:none;stroke:#000000;stroke-width:0.38;stroke-linecap:round;stroke-linejoin:round;stroke-miterlimit:10;" x1="969.9" y1="283.7" x2="950.9" y2="264.7"/>
<line style="fill:none;stroke:#000000;stroke-width:0.38;stroke-linecap:round;stroke-linejoin:round;stroke-miterlimit:10;" x1="982.8" y1="290.4" x2="959" y2="266.7"/>
<line style="fill:none;stroke:#000000;stroke-width:0.38;stroke-linecap:round;stroke-linejoin:round;stroke-miterlimit:10;" x1="995.7" y1="297.2" x2="967.2" y2="268.7"/>
<line style="fill:none;stroke:#000000;stroke-width:0.38;stroke-linecap:round;stroke-linejoin:round;stroke-miterlimit:10;" x1="1008.5" y1="303.9" x2="975.3" y2="270.7"/>
<line style="fill:none;stroke:#000000;stroke-width:0.38;stroke-linecap:round;stroke-linejoin:round;stroke-miterlimit:10;" x1="1021.4" y1="310.7" x2="983.4" y2="272.7"/>
<line style="fill:none;stroke:#000000;stroke-width:0.38;stroke-linecap:round;stroke-linejoin:round;stroke-miterlimit:10;" x1="1034.2" y1="317.4" x2="991.5" y2="274.7"/>
<line style="fill:none;stroke:#000000;stroke-width:0.38;stroke-linecap:round;stroke-linejoin:round;stroke-miterlimit:10;" x1="1043.8" y1="320.9" x2="999.6" y2="276.7"/>
<line style="fill:none;stroke:#000000;stroke-width:0.38;stroke-linecap:round;stroke-linejoin:round;stroke-miterlimit:10;" x1="1045.8" y1="316.8" x2="1007.7" y2="278.7"/>
<line style="fill:none;stroke:#000000;stroke-width:0.38;stroke-linecap:round;stroke-linejoin:round;stroke-miterlimit:10;" x1="1047.7" y1="312.6" x2="1015.8" y2="280.7"/>
<line style="fill:none;stroke:#000000;stroke-width:0.38;stroke-linecap:round;stroke-linejoin:round;stroke-miterlimit:10;" x1="1049.5" y1="308.3" x2="1023.9" y2="282.7"/>
<line style="fill:none;stroke:#000000;stroke-width:0.38;stroke-linecap:round;stroke-linejoin:round;stroke-miterlimit:10;" x1="1051.2" y1="303.8" x2="1032" y2="284.7"/>
<line style="fill:none;stroke:#000000;stroke-width:0.38;stroke-linecap:round;stroke-linejoin:round;stroke-miterlimit:10;" x1="1052.7" y1="299.2" x2="1040.1" y2="286.7"/>
<line style="fill:none;stroke:#000000;stroke-width:0.38;stroke-linecap:round;stroke-linejoin:round;stroke-miterlimit:10;" x1="1054.1" y1="294.5" x2="1048.2" y2="288.7"/>
<polyline style="fill:none;stroke:#000000;stroke-width:0.38;stroke-linecap:round;stroke-linejoin:round;stroke-miterlimit:10;" points="
	1043.2,322.1 1045.7,317.1 1048,311.9 1050.2,306.6 1052.1,301.3 1053.8,295.9 1055.2,290.4 918.5,256.7 1043.2,322.1 "/>
<polyline style="fill:none;stroke:#000000;stroke-width:0.38;stroke-linecap:round;stroke-linejoin:round;stroke-miterlimit:10;" points="
	1055.2,290.4 1056.5,284.9 1057.5,279.3 1058.3,273.7 1058.9,268 1059.2,262.4 1059.3,256.7 918.5,256.7 1055.2,290.4 "/>
<polyline style="fill:none;stroke:#000000;stroke-width:0.38;stroke-linecap:round;stroke-linejoin:round;stroke-miterlimit:10;" points="
	1059.3,256.7 1059.3,256.7 918.5,256.7 1059.3,256.7 "/>
<line style="fill:none;stroke:#000000;stroke-width:0.38;stroke-linecap:round;stroke-linejoin:round;stroke-miterlimit:10;" x1="924.6" y1="256.7" x2="924.6" y2="256.7"/>
<line style="fill:none;stroke:#000000;stroke-width:0.38;stroke-linecap:round;stroke-linejoin:round;stroke-miterlimit:10;" x1="930.7" y1="256.7" x2="930.7" y2="256.7"/>
<line style="fill:none;stroke:#000000;stroke-width:0.38;stroke-linecap:round;stroke-linejoin:round;stroke-miterlimit:10;" x1="936.8" y1="256.7" x2="936.8" y2="256.7"/>
<line style="fill:none;stroke:#000000;stroke-width:0.38;stroke-linecap:round;stroke-linejoin:round;stroke-miterlimit:10;" x1="943" y1="256.7" x2="943" y2="256.7"/>
<line style="fill:none;stroke:#000000;stroke-width:0.38;stroke-linecap:round;stroke-linejoin:round;stroke-miterlimit:10;" x1="949.1" y1="256.7" x2="949.1" y2="256.7"/>
<line style="fill:none;stroke:#000000;stroke-width:0.38;stroke-linecap:round;stroke-linejoin:round;stroke-miterlimit:10;" x1="955.2" y1="256.7" x2="955.2" y2="256.7"/>
<line style="fill:none;stroke:#000000;stroke-width:0.38;stroke-linecap:round;stroke-linejoin:round;stroke-miterlimit:10;" x1="961.3" y1="256.7" x2="961.3" y2="256.7"/>
<line style="fill:none;stroke:#000000;stroke-width:0.38;stroke-linecap:round;stroke-linejoin:round;stroke-miterlimit:10;" x1="967.4" y1="256.7" x2="967.4" y2="256.7"/>
<line style="fill:none;stroke:#000000;stroke-width:0.38;stroke-linecap:round;stroke-linejoin:round;stroke-miterlimit:10;" x1="973.5" y1="256.7" x2="973.5" y2="256.7"/>
<line style="fill:none;stroke:#000000;stroke-width:0.38;stroke-linecap:round;stroke-linejoin:round;stroke-miterlimit:10;" x1="979.6" y1="256.7" x2="979.6" y2="256.7"/>
<line style="fill:none;stroke:#000000;stroke-width:0.38;stroke-linecap:round;stroke-linejoin:round;stroke-miterlimit:10;" x1="985.7" y1="256.7" x2="985.7" y2="256.7"/>
<line style="fill:none;stroke:#000000;stroke-width:0.38;stroke-linecap:round;stroke-linejoin:round;stroke-miterlimit:10;" x1="991.8" y1="256.7" x2="991.8" y2="256.7"/>
<line style="fill:none;stroke:#000000;stroke-width:0.38;stroke-linecap:round;stroke-linejoin:round;stroke-miterlimit:10;" x1="997.9" y1="256.7" x2="997.9" y2="256.7"/>
<line style="fill:none;stroke:#000000;stroke-width:0.38;stroke-linecap:round;stroke-linejoin:round;stroke-miterlimit:10;" x1="1004" y1="256.7" x2="1004" y2="256.7"/>
<line style="fill:none;stroke:#000000;stroke-width:0.38;stroke-linecap:round;stroke-linejoin:round;stroke-miterlimit:10;" x1="1010.2" y1="256.7" x2="1010.2" y2="256.7"/>
<line style="fill:none;stroke:#000000;stroke-width:0.38;stroke-linecap:round;stroke-linejoin:round;stroke-miterlimit:10;" x1="1016.3" y1="256.7" x2="1016.3" y2="256.7"/>
<line style="fill:none;stroke:#000000;stroke-width:0.38;stroke-linecap:round;stroke-linejoin:round;stroke-miterlimit:10;" x1="1022.4" y1="256.7" x2="1022.4" y2="256.7"/>
<line style="fill:none;stroke:#000000;stroke-width:0.38;stroke-linecap:round;stroke-linejoin:round;stroke-miterlimit:10;" x1="1028.5" y1="256.7" x2="1028.5" y2="256.7"/>
<line style="fill:none;stroke:#000000;stroke-width:0.38;stroke-linecap:round;stroke-linejoin:round;stroke-miterlimit:10;" x1="1034.6" y1="256.7" x2="1034.6" y2="256.7"/>
<line style="fill:none;stroke:#000000;stroke-width:0.38;stroke-linecap:round;stroke-linejoin:round;stroke-miterlimit:10;" x1="1040.7" y1="256.7" x2="1040.7" y2="256.7"/>
<line style="fill:none;stroke:#000000;stroke-width:0.38;stroke-linecap:round;stroke-linejoin:round;stroke-miterlimit:10;" x1="1046.8" y1="256.7" x2="1046.8" y2="256.7"/>
<line style="fill:none;stroke:#000000;stroke-width:0.38;stroke-linecap:round;stroke-linejoin:round;stroke-miterlimit:10;" x1="1052.9" y1="256.7" x2="1052.9" y2="256.7"/>
<line style="fill:none;stroke:#000000;stroke-width:0.38;stroke-linecap:round;stroke-linejoin:round;stroke-miterlimit:10;" x1="1059" y1="256.7" x2="1059" y2="256.7"/>
<polyline style="fill:none;stroke:#000000;stroke-width:0.38;stroke-linecap:round;stroke-linejoin:round;stroke-miterlimit:10;" points="
	1059.3,256.7 1059.3,256.7 918.5,256.7 1059.3,256.7 "/>
<text transform="matrix(1 0 0 1 615.0469 381.4919)"><tspan x="0" y="0" style="font-family:'Helvetica'; font-size:21px;">Mainshock-aftershock</tspan><tspan x="68.5" y="25.2" style="font-family:'Helvetica'; font-size:21px;">clustered 62%</tspan></text>
<text transform="matrix(1 0 0 1 1045.0029 176.7096)"><tspan x="0" y="0" style="font-family:'Helvetica'; font-size:21px;">No mainshock-afterhsock</tspan><tspan x="0" y="25.2" style="font-family:'Helvetica'; font-size:21px;">clustering 35%</tspan></text>
<text transform="matrix(1 0 0 1 1067.8719 283.6896)" style="font-family:'Helvetica'; font-size:21px;">Too few mainshocks 3%</text>
<text transform="matrix(1 0 0 1 4.7052 308.2653)"><tspan x="0" y="0" style="font-family:'Helvetica'; font-size:21px;">Mainshock-aftershock</tspan><tspan x="68.5" y="25.2" style="font-family:'Helvetica'; font-size:21px;">clustered 63%</tspan></text>
<text transform="matrix(1 0 0 1 476.4221 174.7115)"><tspan x="0" y="0" style="font-family:'Helvetica'; font-size:21px;">No mainshock-afterhsock</tspan><tspan x="0" y="25.2" style="font-family:'Helvetica'; font-size:21px;">clustering 33%</tspan></text>
</svg>
